<svg xmlns="http://www.w3.org/2000/svg" viewBox="0 0 1600 760" role="img" aria-label="Soft justice background with United States flag and Lady Justice">
  <defs>
    <linearGradient id="sky" x1="0" x2="1" y1="0" y2="1">
      <stop offset="0" stop-color="#f8fbff"/>
      <stop offset="0.54" stop-color="#edf4fc"/>
      <stop offset="1" stop-color="#f8fafc"/>
    </linearGradient>
    <linearGradient id="navyFade" x1="0" x2="1">
      <stop offset="0" stop-color="#1a2e4a" stop-opacity="0.24"/>
      <stop offset="0.58" stop-color="#1a2e4a" stop-opacity="0.08"/>
      <stop offset="1" stop-color="#1a2e4a" stop-opacity="0"/>
    </linearGradient>
    <filter id="softBlur" x="-20%" y="-20%" width="140%" height="140%">
      <feGaussianBlur stdDeviation="7"/>
    </filter>
    <filter id="softBlurSmall" x="-20%" y="-20%" width="140%" height="140%">
      <feGaussianBlur stdDeviation="3.2"/>
    </filter>
  </defs>

  <rect width="1600" height="760" fill="url(#sky)"/>

  <g opacity="0.35" filter="url(#softBlur)" transform="translate(-85 105) rotate(-8 330 210)">
    <rect x="0" y="0" width="720" height="390" rx="24" fill="#ffffff" opacity="0.42"/>
    <g opacity="0.62">
      <rect x="0" y="0" width="720" height="30" fill="#b12834"/>
      <rect x="0" y="60" width="720" height="30" fill="#b12834"/>
      <rect x="0" y="120" width="720" height="30" fill="#b12834"/>
      <rect x="0" y="180" width="720" height="30" fill="#b12834"/>
      <rect x="0" y="240" width="720" height="30" fill="#b12834"/>
      <rect x="0" y="300" width="720" height="30" fill="#b12834"/>
      <rect x="0" y="360" width="720" height="30" fill="#b12834"/>
      <rect x="0" y="0" width="300" height="210" fill="#1f3d67"/>
      <g fill="#ffffff" opacity="0.76">
        <circle cx="38" cy="32" r="5"/><circle cx="82" cy="32" r="5"/><circle cx="126" cy="32" r="5"/><circle cx="170" cy="32" r="5"/><circle cx="214" cy="32" r="5"/><circle cx="258" cy="32" r="5"/>
        <circle cx="60" cy="66" r="5"/><circle cx="104" cy="66" r="5"/><circle cx="148" cy="66" r="5"/><circle cx="192" cy="66" r="5"/><circle cx="236" cy="66" r="5"/>
        <circle cx="38" cy="100" r="5"/><circle cx="82" cy="100" r="5"/><circle cx="126" cy="100" r="5"/><circle cx="170" cy="100" r="5"/><circle cx="214" cy="100" r="5"/><circle cx="258" cy="100" r="5"/>
        <circle cx="60" cy="134" r="5"/><circle cx="104" cy="134" r="5"/><circle cx="148" cy="134" r="5"/><circle cx="192" cy="134" r="5"/><circle cx="236" cy="134" r="5"/>
        <circle cx="38" cy="168" r="5"/><circle cx="82" cy="168" r="5"/><circle cx="126" cy="168" r="5"/><circle cx="170" cy="168" r="5"/><circle cx="214" cy="168" r="5"/><circle cx="258" cy="168" r="5"/>
      </g>
    </g>
  </g>

  <g opacity="0.19" filter="url(#softBlurSmall)" transform="translate(1135 58)">
    <path d="M142 121c-16-26-9-55 16-76 26 19 33 52 17 76l15 34h-63z" fill="#142641"/>
    <rect x="145" y="151" width="28" height="265" rx="12" fill="#142641"/>
    <path d="M82 224c30-42 54-65 77-65 24 0 50 24 82 65l-22 19c-19-25-35-40-47-45v218h-27V198c-12 6-27 20-46 45z" fill="#142641"/>
    <path d="M94 413h128l34 182H60z" fill="#142641"/>
    <path d="M54 592h210l34 48H20z" fill="#142641"/>
    <path d="M154 160l-92 18" stroke="#142641" stroke-width="10" stroke-linecap="round"/>
    <path d="M160 160l138 11" stroke="#142641" stroke-width="10" stroke-linecap="round"/>
    <path d="M60 180l-40 72h80z" fill="none" stroke="#142641" stroke-width="7" stroke-linejoin="round"/>
    <path d="M300 174l-42 78h84z" fill="none" stroke="#142641" stroke-width="7" stroke-linejoin="round"/>
    <path d="M95 252H25" stroke="#142641" stroke-width="7" stroke-linecap="round"/>
    <path d="M335 252h-72" stroke="#142641" stroke-width="7" stroke-linecap="round"/>
    <path d="M280 116l114 488" stroke="#142641" stroke-width="12" stroke-linecap="round"/>
    <path d="M366 610l75 36-92 18z" fill="#142641"/>
    <path d="M107 58c20-31 72-34 100 0 16 20 15 48-3 68H110c-18-20-18-48-3-68z" fill="#142641"/>
    <path d="M104 102h106" stroke="#f8fbff" stroke-width="7" stroke-linecap="round" opacity="0.45"/>
  </g>

  <rect width="1600" height="760" fill="url(#navyFade)"/>
  <rect width="1600" height="760" fill="#ffffff" opacity="0.24"/>
</svg>
